<?xml version="1.0" encoding="utf-8"?>
<!-- Generator: Adobe Illustrator 19.0.0, SVG Export Plug-In . SVG Version: 6.00 Build 0)  -->
<svg version="1.1" id="Layer_1" xmlns="http://www.w3.org/2000/svg" xmlns:xlink="http://www.w3.org/1999/xlink" x="0px" y="0px"
	 viewBox="96 -306 612 792" style="enable-background:new 96 -306 612 792;" xml:space="preserve">
<style type="text/css">
	.st0{fill:#FFFFFF;}
</style>
<g id="XMLID_55_">
	<g id="XMLID_1_">
		<g>
			<polygon class="st0" points="486.5,-34.2 486.5,22.1 242.3,341.1 186.1,341.1 			"/>
			<path class="st0" d="M417.9,337.7c-6.4,0.9-16.9,1.9-20.1,2.2l-0.4-3.5c14.7-2.1,27-4.8,36.7-8c10-3.3,17.2-9.2,21.4-17.6
				c1.9-3.7,2.8-7.1,2.8-10.1s-0.3-5.3-0.9-7.1l-0.2-0.7l-0.7,0.1c-2.5,0.4-5.2,0.2-7.8-0.6c-2.7-0.8-5.3-1.8-7.7-3
				c-2.4-1.2-4.8-2.9-7-5.1c-2.2-2.1-3.9-4.7-5.2-7.7c-1.3-3-1.9-6.4-2-10.1c-0.1-3.7,0.9-7.7,3-11.9c2.1-4.2,4.7-7.4,7.7-9.6
				c3.1-2.2,6.3-3.6,9.6-4.3c3.4-0.7,6.8-0.7,10.2-0.1c3.4,0.6,6.6,1.7,9.5,3.1c8.4,4.2,13.9,11.3,16.5,21.1
				c2.5,9.9,0.6,21.4-5.7,34.1c-4.3,8.7-9.8,15.7-16.4,20.8c-6.6,5.1-13.6,9.2-20.9,12C433,334.5,425.5,336.6,417.9,337.7z"/>
			<path class="st0" d="M455.5,310.8c-4.2,8.4-11.4,14.3-21.4,17.6c-9.7,3.2-22,5.9-36.7,8l0.4,3.5c3.2-0.3,13.7-1.3,20.1-2.2
				c7.6-1.1,15.1-3.2,22.4-6c7.3-2.8,14.3-6.9,20.9-12c6.6-5.1,12.1-12.1,16.4-20.8c6.3-12.7,8.2-24.2,5.7-34.1
				c-2.6-9.8-8.1-16.9-16.5-21.1c-2.9-1.4-6.1-2.5-9.5-3.1c-3.4-0.6-6.8-0.6-10.2,0.1c-3.3,0.7-6.5,2.1-9.6,4.3
				c-3,2.2-5.6,5.4-7.7,9.6c-2.1,4.2-3.1,8.2-3,11.9c0.1,3.7,0.7,7.1,2,10.1c1.3,3,3,5.6,5.2,7.7c2.2,2.2,4.6,3.9,7,5.1
				c2.4,1.2,5,2.2,7.7,3c2.6,0.8,5.3,1,7.8,0.6l0.7-0.1l0.2,0.7c0.6,1.8,0.9,4.1,0.9,7.1S457.4,307.1,455.5,310.8z M446.9,239.9
				c3.5-0.7,7-0.7,10.5-0.1c3.5,0.6,6.8,1.7,9.7,3.1c8.7,4.3,14.3,11.5,17,21.6c2.6,10.1,0.7,21.7-5.7,34.7
				c-4.4,8.9-10,15.9-16.7,21.1c-6.7,5.2-13.8,9.2-21.1,12.1c-7.4,2.9-14.9,4.9-22.6,6c-7.7,1.2-21.1,2.3-21.1,2.3l-0.2-5
				c15.1-2.1,27.6-4.8,37.4-8c9.8-3.2,16.8-8.9,20.9-17.1c1.8-3.6,2.7-6.9,2.7-9.7c0-2.8-0.3-5.1-0.9-6.8c-2.7,0.3-5.5,0.1-8.2-0.7
				c-2.7-0.8-5.4-1.8-7.9-3.1c-2.5-1.2-4.9-3-7.2-5.3s-4.1-4.9-5.4-8c-1.3-3.1-2-6.5-2.1-10.4s1-8,3.1-12.3c2.2-4.3,4.8-7.6,7.9-9.9
				C440.1,242.1,443.4,240.6,446.9,239.9z"/>
			<polygon class="st0" points="396.8,341.6 396.8,341.7 396.1,341.7 			"/>
			<polygon class="st0" points="396.8,340.8 396.8,341.6 396.1,341.7 396.1,340.8 			"/>
			<polygon class="st0" points="396.8,339.9 396.8,340.8 396.1,340.8 396,339.9 			"/>
			<path class="st0" d="M456.2,294.8c-2.6,0.2-5.2,0-7.8-0.8c-2.8-0.8-5.5-1.9-8-3.1c-2.6-1.3-5.1-3.1-7.4-5.4s-4.2-5.1-5.6-8.3
				c-1.4-3.2-2.1-6.8-2.1-10.7c-0.1-4,1-8.3,3.2-12.7s5-7.9,8.2-10.2c3.2-2.4,6.7-3.9,10.2-4.6c3.6-0.7,7.2-0.8,10.8-0.1
				c3.6,0.7,6.9,1.7,10,3.2c8.9,4.4,14.7,11.9,17.4,22.2c2.7,10.3,0.7,22.2-5.8,35.3c-4.5,9-10.2,16.2-16.9,21.4
				c-6.7,5.2-13.9,9.3-21.4,12.2c-7.4,2.9-15.1,4.9-22.8,6.1c-7.6,1.1-21,2.3-21.2,2.3l-0.2,0v-0.8v-0.9H396l-0.1-4.9l0.8-0.1
				c14.9-2.2,27.4-4.9,37.1-8.1c4.8-1.5,8.9-3.7,12.3-6.5c3.4-2.8,6.1-6.2,8.1-10.2c1.7-3.5,2.6-6.7,2.6-9.4
				C456.8,298.3,456.6,296.3,456.2,294.8z M457.4,239.8c-3.5-0.6-7-0.6-10.5,0.1c-3.5,0.7-6.8,2.2-9.9,4.5c-3.1,2.3-5.7,5.6-7.9,9.9
				c-2.1,4.3-3.2,8.4-3.1,12.3s0.8,7.3,2.1,10.4c1.3,3.1,3.1,5.7,5.4,8s4.7,4.1,7.2,5.3c2.5,1.3,5.2,2.3,7.9,3.1
				c2.7,0.8,5.5,1,8.2,0.7c0.6,1.7,0.9,4,0.9,6.8c0,2.8-0.9,6.1-2.7,9.7c-4.1,8.2-11.1,13.9-20.9,17.1c-9.8,3.2-22.3,5.9-37.4,8
				l0.2,5c0,0,13.4-1.1,21.1-2.3c7.7-1.1,15.2-3.1,22.6-6c7.3-2.9,14.4-6.9,21.1-12.1c6.7-5.2,12.3-12.2,16.7-21.1
				c6.4-13,8.3-24.6,5.7-34.7c-2.7-10.1-8.3-17.3-17-21.6C464.2,241.5,460.9,240.4,457.4,239.8z"/>
			<polygon class="st0" points="396.1,340.8 396.1,341.7 386.6,341.7 386.6,340.8 			"/>
			<path class="st0" d="M395.8,339.9v0.2c-1.8,0-5.4,0-7.5,0c0.2-0.1,0.3-0.1,0.5-0.2H395.8z"/>
			<path class="st0" d="M395.7,335.6l0.1,4.3h-7C391.3,338.8,394.8,336.4,395.7,335.6z"/>
			<path class="st0" d="M395.8,335.3l0.1,4.6h-0.1l-0.1-4.3c-0.9,0.8-4.4,3.2-6.9,4.3h-0.5C391.2,338.8,395.8,335.3,395.8,335.3z"/>
			<path class="st0" d="M395.9,335l0.1,4.9h-0.1l-0.1-4.6c0,0-4.6,3.5-7.5,4.6h-0.4c2.8-0.9,7.7-4.7,7.8-4.7L395.9,335z"/>
			<path class="st0" d="M395.9,339.9l0,0.3c0,0-8.6,0-8.9,0c0.4,0,0.8-0.1,1.3-0.3h0.5c-0.2,0.1-0.3,0.1-0.5,0.2c2.1,0,5.7,0,7.5,0
				L395.9,339.9L395.9,339.9z"/>
			<path class="st0" d="M387.9,339.9c-0.4,0.1-0.7,0.2-0.9,0.2c-0.2,0-0.3,0-0.4,0v-0.2H387.9z"/>
			<path class="st0" d="M387,340.1c0.3,0,0.6-0.1,0.9-0.2h0.4c-0.5,0.2-1,0.3-1.3,0.3c0.3,0,8.9,0,8.9,0l0-0.3h0.1l0,0.5h-0.1
				c0,0-2.3,0-4.6,0c-1.1,0-2,0-2.7,0c-0.9,0-1.4,0-1.7,0c-0.1,0-0.2,0-0.2,0l-0.1,0v-0.3C386.7,340.1,386.8,340.1,387,340.1z"/>
			<path class="st0" d="M396.1,340.8h-9.5v-0.4l0.1,0c0,0,0.1,0,0.2,0c0.3,0,0.8,0,1.7,0c0.7,0,1.6,0,2.7,0c2.3,0,4.6,0,4.6,0h0.1
				l0-0.5h0.1L396.1,340.8z"/>
			<path class="st0" d="M386.6,340.1v0.3c-0.1,0-0.1-0.1-0.1-0.1C386.5,340.2,386.5,340.1,386.6,340.1z"/>
			<path class="st0" d="M286.5-33.4v0.6h-1.9c0.6-0.2,1-0.4,1.4-0.4C286.4-33.2,286.5-33.2,286.5-33.4z"/>
			<polygon class="st0" points="286.5,-34.8 286.5,-33.8 277.5,-33.8 277.5,-34.8 			"/>
			<path class="st0" d="M284.9-33.1c-2.1-0.1-5.6-0.1-7.4,0v-0.2c1.6,0,10.7-0.1,8.5,0c-0.5,0-1.1,0.2-1.8,0.5h-0.1
				C284.4-32.9,284.7-33,284.9-33.1z"/>
			<path class="st0" d="M277.5-33.1c1.8-0.1,5.3-0.1,7.4,0c-0.2,0.1-0.5,0.2-0.7,0.3h-6.6V-33.1z"/>
			<path class="st0" d="M277.5-33.5c0.6,0,2.5,0,4.3,0c2.7,0,3.9,0,4.3,0c0.1,0,0.2,0,0.2,0c0.2,0,0.2,0.1,0.2,0.1
				c0,0.2-0.1,0.2-0.5,0.2c-0.4,0-0.9,0.2-1.4,0.4h-0.3c0.7-0.3,1.3-0.5,1.8-0.5c2.2-0.1-6.9,0-8.5,0L277.5-33.5z"/>
			<path class="st0" d="M281.8-33.5c-1.8,0-3.7,0-4.3,0v-0.3h9v0.4c0,0,0-0.1-0.2-0.1c0,0-0.1,0-0.2,0
				C285.7-33.5,284.5-33.5,281.8-33.5z"/>
			<path class="st0" d="M284.2-32.8c-2.4,1.1-5.7,3.5-6.6,4.2l0-0.6l0-0.1v-0.1l0-3.4H284.2z"/>
			<path class="st0" d="M277.6-28.5c0.9-0.7,4.2-3.2,6.6-4.2h0.3c-2.4,1-6.1,3.7-7,4.4V-28.5z"/>
			<path class="st0" d="M284.2-32.8c-2.4,1.1-5.8,3.6-6.6,4.2v-0.1C278.5-29.3,281.7-31.7,284.2-32.8L284.2-32.8z"/>
			<path class="st0" d="M277.6-28.4v0.1l-0.2,0l0,0C277.4-28.3,277.5-28.4,277.6-28.4z"/>
			<path class="st0" d="M277.6-29.3L277.6-29.3L277.6-29.3z"/>
			<polygon class="st0" points="277.5,-32.8 277.6,-29.4 277.5,-32.8 			"/>
			<path class="st0" d="M277.6-29.2l0,0.6v0.1c-0.1,0.1-0.2,0.1-0.2,0.1l-0.1-4.4h0.2l0.1,3.4L277.6-29.2L277.6-29.2z"/>
			<path class="st0" d="M277.5-33.1v0.3h0L277.5-33.1C277.5-33.1,277.5-33.1,277.5-33.1z"/>
			<path class="st0" d="M277.5-33.5l0,0.2c-0.1,0-0.2,0-0.2,0v-0.2C277.3-33.5,277.4-33.5,277.5-33.5z"/>
			<path class="st0" d="M277.5-33.8v0.3c-0.1,0-0.2,0-0.2,0v-0.3H277.5z"/>
			<polygon class="st0" points="277.5,-34.8 277.5,-33.8 277.3,-33.8 277.3,-34.8 			"/>
			<path class="st0" d="M277.5-33.1l0,0.3h-0.2l0-0.3v-0.2c0,0,0.1,0,0.2,0L277.5-33.1C277.5-33.1,277.5-33.1,277.5-33.1z"/>
			<polygon class="st0" points="277.4,-28.3 277.3,-28.1 277.3,-28.3 			"/>
			<polygon class="st0" points="277.3,-33.1 277.3,-32.8 277.3,-32.8 			"/>
			<path class="st0" d="M277.3-32.8L277.3-32.8l0.1,4.4c0,0,0.1-0.1,0.2-0.1v0.1c-0.1,0.1-0.2,0.1-0.2,0.1l0,0l-0.1,0l-0.1-5.2h0.1
				v0.2v0.2V-32.8z"/>
			<path class="st0" d="M275.6-33l0.2,3.4c-14.7,1.9-27.1,4.4-36.8,7.4c-10.1,3.1-17.4,8.9-21.7,17.2c-2,3.8-3,7.1-3,10.1
				s0.2,5.3,0.8,7.1l0.2,0.7l0.7-0.1c2.6-0.3,5.2,0,7.8,0.8c2.7,0.8,5.3,1.8,7.7,3.1c2.4,1.2,4.7,3,6.9,5.2c2.2,2.2,3.9,4.8,5.1,7.8
				s1.8,6.4,1.8,10.1c0,3.8-1.1,7.8-3.2,11.9c-2.1,4.2-4.8,7.4-7.8,9.5c-3,2.2-6.3,3.6-9.6,4.2c-3.4,0.6-6.8,0.6-10.2-0.1
				c-3.5-0.6-6.6-1.7-9.5-3.2c-8.4-4.3-13.8-11.5-16.2-21.4c-2.4-9.9-0.3-21.4,6.2-34c4.5-8.7,10.2-15.6,16.8-20.6
				c6.7-5,13.8-8.9,21.1-11.6c7.3-2.7,14.9-4.6,22.5-5.6C261.9-32,272.4-32.8,275.6-33z"/>
			<path class="st0" d="M204.5,62.8c-8.6-4.4-14.1-11.7-16.6-21.9s-0.4-21.7,6.3-34.6c4.6-8.8,10.2-15.8,17-20.9s13.9-9,21.3-11.7
				s15-4.6,22.7-5.7c7.7-1,21.1-2,21.1-2l0.1,5c-14.9,2.1-27.4,4.6-37.3,7.6c-9.9,3-16.9,8.6-21.2,16.8C216-1,215.1,2.3,215,5.1
				c0,2.8,0.2,5.1,0.8,6.8c2.7-0.3,5.5,0,8.2,0.8s5.3,1.9,7.8,3.2c2.5,1.3,4.9,3.1,7.1,5.4c2.2,2.3,4,5,5.3,8.1s1.9,6.6,1.9,10.4
				c0,3.9-1.1,8-3.3,12.3s-4.9,7.6-8.1,9.8c-3.2,2.2-6.5,3.7-10,4.3c-3.5,0.6-7,0.6-10.5-0.1C210.7,65.4,207.4,64.3,204.5,62.8z
				 M188.8,40.7c2.4,9.9,7.8,17.1,16.2,21.4c2.9,1.5,6,2.6,9.5,3.2c3.4,0.7,6.8,0.7,10.2,0.1c3.3-0.6,6.6-2,9.6-4.2
				c3-2.1,5.7-5.3,7.8-9.5c2.1-4.1,3.2-8.1,3.2-11.9c0-3.7-0.6-7.1-1.8-10.1s-2.9-5.6-5.1-7.8c-2.2-2.2-4.5-4-6.9-5.2
				c-2.4-1.3-5-2.3-7.7-3.1c-2.6-0.8-5.2-1.1-7.8-0.8l-0.7,0.1l-0.2-0.7c-0.6-1.8-0.8-4.1-0.8-7.1s1-6.3,3-10.1
				c4.3-8.3,11.6-14.1,21.7-17.2c9.7-3,22.1-5.5,36.8-7.4l-0.2-3.4c-3.2,0.2-13.7,1-20.2,1.9c-7.6,1-15.2,2.9-22.5,5.6
				c-7.3,2.7-14.4,6.6-21.1,11.6C205.2-8.9,199.5-2,195,6.7C188.5,19.3,186.4,30.8,188.8,40.7z"/>
			<path class="st0" d="M211.2-14.6c-6.8,5.1-12.4,12.1-17,20.9c-6.7,12.9-8.8,24.4-6.3,34.6s8,17.5,16.6,21.9
				c2.9,1.5,6.2,2.6,9.7,3.3c3.5,0.7,7,0.7,10.5,0.1c3.5-0.6,6.8-2.1,10-4.3c3.2-2.2,5.9-5.5,8.1-9.8s3.3-8.4,3.3-12.3
				c0-3.8-0.6-7.3-1.9-10.4s-3.1-5.8-5.3-8.1c-2.2-2.3-4.6-4.1-7.1-5.4c-2.5-1.3-5.1-2.4-7.8-3.2s-5.5-1.1-8.2-0.8
				c-0.6-1.7-0.8-4-0.8-6.8c0.1-2.8,1-6.1,2.9-9.7c4.3-8.2,11.3-13.8,21.2-16.8c9.9-3,22.4-5.5,37.3-7.6l-0.1-5c0,0-13.4,1-21.1,2
				c-7.7,1.1-15.3,3-22.7,5.7S218-19.7,211.2-14.6z M193.6,5.9c4.6-8.9,10.4-16,17.3-21.2c6.8-5.1,14.1-9.1,21.6-11.9
				s15.2-4.7,22.9-5.7c7.6-1,21.1-2,21.2-2l0.9-0.1v0.2h-0.2v1v0.3h-0.1l0.1,5.2l-0.5,0.1c-15,1.9-27.5,4.5-37.3,7.5
				c-4.8,1.5-8.9,3.6-12.4,6.4c-3.5,2.7-6.2,6.1-8.2,10c-1.8,3.5-2.7,6.6-2.8,9.3c0,2.4,0.1,4.4,0.5,5.9c2.6-0.2,5.2,0.1,7.8,0.9
				c2.8,0.9,5.4,1.9,8,3.2c2.5,1.3,5,3.2,7.3,5.6s4.1,5.2,5.4,8.4c1.3,3.2,2,6.8,2,10.8s-1.2,8.3-3.4,12.7
				c-2.3,4.4-5.1,7.8-8.3,10.1c-3.3,2.3-6.7,3.8-10.3,4.4c-3.6,0.7-7.2,0.6-10.8-0.1c-3.8-0.6-7.1-1.7-10.1-3.3
				c-8.8-4.5-14.5-12.1-17-22.5C184.7,30.8,186.8,18.9,193.6,5.9z"/>
		</g>
	</g>
</g>
</svg>
